<svg xmlns="http://www.w3.org/2000/svg" viewBox="0 0 128 128" width="128" height="128">
  <!-- Gradient Background -->
  <defs>
    <linearGradient id="bgGradient" x1="0%" y1="0%" x2="100%" y2="100%">
      <stop offset="0%" style="stop-color:#667eea;stop-opacity:1" />
      <stop offset="100%" style="stop-color:#764ba2;stop-opacity:1" />
    </linearGradient>
    <linearGradient id="shieldGradient" x1="0%" y1="0%" x2="0%" y2="100%">
      <stop offset="0%" style="stop-color:#ffffff;stop-opacity:1" />
      <stop offset="100%" style="stop-color:#e8eaf6;stop-opacity:1" />
    </linearGradient>
    <filter id="shadow">
      <feDropShadow dx="0" dy="2" stdDeviation="3" flood-opacity="0.3"/>
    </filter>
  </defs>

  <!-- Rounded Square Background -->
  <rect width="128" height="128" rx="24" ry="24" fill="url(#bgGradient)"/>

  <!-- Shield Shape -->
  <g filter="url(#shadow)">
    <path d="M 64 24 L 44 32 L 44 58 C 44 74 52 88 64 96 C 76 88 84 74 84 58 L 84 32 Z"
          fill="url(#shieldGradient)"
          stroke="#5568d3"
          stroke-width="2"/>
  </g>

  <!-- Heart Symbol in Center (representing children/innocence) -->
  <path d="M 64 54 C 64 54 58 48 54 48 C 50 48 48 51 48 54 C 48 58 51 61 64 70 C 77 61 80 58 80 54 C 80 51 78 48 74 48 C 70 48 64 54 64 54 Z"
        fill="#667eea"
        opacity="0.8"/>

  <!-- Checkmark Symbol -->
  <path d="M 56 62 L 61 68 L 72 54"
        stroke="#4CAF50"
        stroke-width="4"
        stroke-linecap="round"
        stroke-linejoin="round"
        fill="none"/>

  <!-- Small stars/sparkles around shield (representing protection) -->
  <circle cx="38" cy="42" r="2" fill="#fff" opacity="0.8"/>
  <circle cx="90" cy="45" r="2" fill="#fff" opacity="0.8"/>
  <circle cx="40" cy="75" r="1.5" fill="#fff" opacity="0.7"/>
  <circle cx="88" cy="78" r="1.5" fill="#fff" opacity="0.7"/>
</svg>
